<?xml version="1.0" encoding="UTF-8"?><svg id="Layer_1" xmlns="http://www.w3.org/2000/svg" viewBox="0 0 236.07 71.2"><defs><style>.cls-1{<fill: id="fffff"></fill:>;}</style></defs><path d="M47.44,53.22c1.06,2.29,2.12,4.56,3.19,6.87-.14,0-.24,.02-.34,.02-3.26,0-6.51,0-9.77,0-.25,0-.35-.09-.45-.3-.5-1.13-1.02-2.25-1.53-3.38-.04-.1-.09-.19-.14-.3l9.04-2.92Z"/><path d="M56.05,50.46c-2.89,.93-5.73,1.84-8.61,2.76"/><path d="M65.27,47.49c-.28,.09-.34,.22-.34,.49,0,3.9,0,7.8,0,11.69,0,.13,0,.25,0,.41h-8.88v-9.62l9.22-2.97Z"/><path d="M75.34,44.28c-.14,.04-.23,.06-.33,.09-3.25,1.04-6.49,2.09-9.75,3.12"/><path d="M84.56,41.3c-.29,.09-.34,.22-.34,.49,0,5.97,0,11.94,0,17.91v.39h-8.88v-15.81l9.22-2.99Z"/><path d="M75.01,36.18c.27-.08,.33-.22,.33-.47,0-3.71-.01-7.41,0-11.12,0-2.02,.27-4,1.01-5.9,1.4-3.59,4.05-5.76,7.76-6.64,2.47-.59,4.95-.56,7.41,.11,.05,.01,.1,.03,.18,.06-.35,2.41-.69,4.82-1.03,7.16-.67,0-1.32-.06-1.96,.01-2.25,.27-3.8,1.7-4.28,3.93-.12,.55-.19,1.12-.19,1.68-.02,2.69,0,5.38,0,8.07v.22"/><path d="M55.75,42.19c.25-.08,.29-.2,.29-.43,0-5.77-.02-11.53,0-17.3,0-2.33,.38-4.59,1.42-6.71,1.48-3.01,3.92-4.83,7.14-5.65,2.67-.68,5.35-.55,8.03,.01,.1,.02,.2,.06,.34,.1-.58,2.41-1.15,4.82-1.71,7.16-.63,0-1.24-.06-1.83,.01-2.26,.28-3.81,1.69-4.28,3.92-.13,.62-.2,1.27-.2,1.9-.02,4.59,0,9.18,0,13.78,0,.09,0,.19,.01,.31"/><path class="cls-1" d="M38.41,56.14c-1.54,.24-3.06,.48-4.59,.72-2.78,.44-5.56,.87-8.35,1.31-2.93,.46-5.86,.92-8.79,1.38-1.09,.17-2.17,.34-3.26,.51-.09,.01-.2-.05-.29-.07,.11-.02,.24-.02,.34-.08,7.1-3.7,14.2-7.41,21.3-11.12,.1-.05,.2-.11,.31-.18l8.93-2.79c.1-.02,.2-.04,.3-.07,3.82-1.19,7.63-2.38,11.45-3.56l9.19-2.88c.83-.26,1.63-.5,2.43-.75,2.54-.79,5.09-1.59,7.63-2.37l9.21-2.89c2.46-.77,4.9-1.53,7.36-2.29,0,.13,.01,.23,.01,.33,0,2.47,0,4.93,0,7.4,0,.25-.09,.34-.31,.41-2.25,.71-4.48,1.44-6.73,2.15l-46.16,14.84Z"/><path d="M35.07,48.62c-2.8-6.51-5.59-13-8.41-19.55-.72,1.67-1.4,3.27-2.09,4.86-3.16,7.27-6.32,14.55-9.48,21.82-.62,1.43-1.3,2.83-1.95,4.24-.08,.04-.15,.11-.23,.11-3.37,0-6.75,0-10.12,0-.04,0-.08-.02-.14-.03,.06-.13,.1-.25,.15-.36C10.45,43.42,18.1,27.11,25.75,10.81c.1-.22,.22-.3,.46-.29,.33,.02,.66,.02,.99,0,.27-.02,.41,.07,.53,.33,1.74,3.76,3.49,7.52,5.24,11.28,3.63,7.79,7.25,15.58,10.88,23.37,.04,.1,.09,.19,.15,.32"/><path d="M140.62,60.09h-8.96v-.43c0-5.41,0-10.83,0-16.24,0-1.47-.35-2.84-1.27-4.01-2.48-3.16-7.53-2.66-9.47,.92-.53,.98-.73,2.04-.73,3.15,0,5.39,0,10.79,0,16.18,0,.14,0,.27,0,.43h-8.85V31.03c.09,0,.18-.02,.27-.02,1.44,0,2.88,0,4.33,0,.16,0,.35,.08,.48,.18,1.09,.9,2.18,1.82,3.31,2.77,.35-.36,.66-.74,1.03-1.07,1.72-1.51,3.73-2.37,5.98-2.7,2.37-.35,4.69-.22,6.92,.7,3.63,1.49,5.77,4.25,6.61,8.03,.23,1.03,.32,2.11,.33,3.17,.03,5.87,.01,11.75,.01,17.62v.35Z"/><path d="M181.42,52.98c.4,2.39,.8,4.74,1.2,7.15-.6,.11-1.16,.24-1.73,.32-2.26,.32-4.51,.33-6.75-.15-4.15-.9-6.81-3.59-7.57-7.78-.21-1.17-.31-2.37-.32-3.56-.04-3.5-.01-7-.01-10.51v-.42h-4.64c.11-2.38,.61-4.67,.85-7h3.78v-9.73c2.97-.35,5.9-.7,8.89-1.06v10.78h6.84v6.98h-6.81c0,.15-.02,.26-.02,.38,0,3.63,0,7.26,0,10.89,0,.42,.03,.86,.12,1.27,.32,1.49,1.4,2.45,2.97,2.7,1.08,.18,2.13,.05,3.21-.26Z"/><path d="M202.04,31.01c.15,0,.24,0,.33,0,3,0,6,0,9,0,.24,0,.36,.08,.47,.28,2.4,4.45,4.8,8.9,7.2,13.35,.05,.1,.11,.2,.19,.34,.08-.13,.14-.22,.19-.32,2.47-4.45,4.94-8.9,7.4-13.35,.12-.21,.24-.3,.49-.3,2.8,.01,5.6,0,8.39,0h.36c-.07,.13-.11,.23-.16,.32-5.33,9.67-10.65,19.34-15.97,29.01-.11,.19-.21,.28-.44,.27-.33-.02-.66-.03-.99,0-.25,.02-.38-.08-.49-.29-3.16-5.8-6.32-11.59-9.49-17.39-2.1-3.85-4.2-7.7-6.3-11.54-.06-.11-.11-.22-.2-.37Z"/><path d="M156.79,60.1h-8.85V31.04h8.85v29.06Z"/><path d="M198.06,60.1h-8.85V31.03h8.85v29.06Z"/><path d="M94.86,31.03h8.83v29.05h-8.83V31.03Z"/><path d="M188.86,22.17c0-2.61,2.2-4.84,4.75-4.83,2.62,.01,4.8,2.2,4.79,4.82,0,2.56-2.18,4.67-4.82,4.67-2.6,0-4.73-2.1-4.73-4.67Z"/><path d="M99.22,17.34c2.63,.01,4.82,2.23,4.8,4.85-.02,2.55-2.21,4.65-4.85,4.64-2.61-.01-4.72-2.14-4.7-4.73,.02-2.57,2.22-4.78,4.75-4.76Z"/><path d="M147.66,22.16c0-2.58,2.18-4.81,4.73-4.82,2.61,0,4.82,2.19,4.82,4.8,0,2.57-2.16,4.68-4.79,4.69-2.61,.01-4.75-2.09-4.75-4.68Z"/></svg>