<?xml version="1.0" encoding="UTF-8"?><svg id="Layer_1" xmlns="http://www.w3.org/2000/svg" viewBox="0 0 283.67 71.2"><defs><style>.cls-1{fill:#fff;}</style></defs><path class="cls-1" d="M56.1,53.64c-8.66,12.18-26.56,16.62-40.76,7.62C.8,52.05-3.16,32.53,6.6,18.37,16.39,4.16,36.04,.87,49.85,11.23c14.09,10.57,14.76,28.44,8.37,39.05-.2-.4-.39-.76-.57-1.13-5.6-11.32-11.19-22.64-16.78-33.96-.08-.16-.16-.33-.26-.48-.49-.74-1.36-1-2.13-.64-.79,.36-1.18,1.27-.88,2.11,.11,.32,.28,.62,.43,.92,4.84,9.8,9.69,19.59,14.53,29.39,1.18,2.39,2.36,4.78,3.53,7.15Zm-26.55-14.8c.14-.3,.22-.48,.31-.67,2.02-4.1,4.05-8.2,6.07-12.3,.43-.87,.88-1.72,1.27-2.61,.38-.86,0-1.79-.83-2.18-.79-.38-1.69-.1-2.18,.68-.1,.15-.17,.32-.25,.49-2.18,4.4-4.35,8.81-6.53,13.21-.69,1.41-1.4,2.81-2.07,4.22-.6,1.25,.07,2.41,1.46,2.55,.21,.02,.42,.02,.63,.02,5.55,0,11.09-.02,16.64-.03,.23,0,.47,0,.7-.04,.75-.13,1.31-.74,1.39-1.5,.08-.69-.35-1.43-1.04-1.68-.33-.12-.71-.15-1.07-.16-4.5,0-9,0-13.5,0-.29,0-.57,0-1.01,0Zm-5.51,5.61c-.81,0-1.29,.46-1.62,1.14-.72,1.48-1.45,2.95-2.17,4.43-.54,1.1-1.11,2.19-1.62,3.3-.42,.89-.08,1.86,.75,2.27,.84,.42,1.77,.11,2.27-.77,.06-.11,.12-.23,.18-.35,.93-1.9,1.87-3.79,2.8-5.69,.32-.66,.67-1.3,.96-1.97,.49-1.17-.3-2.37-1.54-2.37Z"/><path class="cls-1" d="M220.85,45.23v-.83c0-9.31,0-18.63,0-27.94,0-.34-.01-.68,.03-1.02,.12-.91,.69-1.46,1.6-1.56,.28-.03,.58-.03,.86,0,.94,.08,1.47,.55,1.66,1.49,.05,.28,.07,.57,.07,.86,0,12.43,0,24.86,0,37.29,0,.08,0,.16,0,.24-.05,1.68-1.33,2.55-2.93,1.98-.55-.2-.89-.62-1.16-1.11-.89-1.63-1.8-3.25-2.7-4.87-4.55-8.21-9.11-16.42-13.66-24.63-.13-.24-.28-.48-.42-.71-.05,.01-.11,.02-.16,.04,0,.27,0,.55,0,.82,0,9.34,0,18.68,0,28.02,0,.26,.02,.53-.01,.78-.04,.28-.09,.58-.21,.83-.47,.94-1.33,.99-2.23,.93-.88-.05-1.43-.44-1.63-1.22-.11-.42-.14-.88-.14-1.32,0-8.01,0-16.01,0-24.02,0-4.24,0-8.48,0-12.72,0-.26,0-.52,.01-.78,.07-.99,.45-1.58,1.25-1.79,.91-.25,1.78-.18,2.44,.6,.25,.3,.44,.65,.63,.99,5.36,9.65,10.72,19.3,16.08,28.94,.15,.26,.3,.52,.45,.78,.05-.02,.11-.03,.16-.05Z"/><path class="cls-1" d="M92.25,45.21v-.84c0-9.26,0-18.52,0-27.78,0-.47,.04-.94,.12-1.4,.12-.65,.54-1.11,1.18-1.22,.53-.09,1.1-.11,1.63,0,.74,.14,1.15,.69,1.26,1.43,.04,.28,.03,.57,.03,.86,0,12.4,0,24.8,0,37.2,0,.08,0,.16,0,.24-.01,1.2-.4,1.88-1.29,2.07-1.22,.25-2.13,.05-2.75-1.08-2.52-4.58-5.07-9.15-7.6-13.72-2.9-5.24-5.81-10.47-8.71-15.71-.14-.25-.29-.5-.5-.87-.06,.27-.13,.42-.13,.58-.01,.73,0,1.46,0,2.2,0,8.63,0,17.26,0,25.9,0,.39-.02,.78-.05,1.17-.01,.18-.06,.36-.12,.53-.34,.87-1.16,1.22-2.45,1.06-.87-.11-1.43-.64-1.55-1.51-.04-.28-.04-.57-.04-.86,0-12.4,0-24.8,0-37.2,0-.1,0-.21,0-.31,.03-1.11,.38-1.74,1.23-1.96,1.21-.32,1.97-.03,2.54,.72,.21,.27,.37,.57,.53,.87,5.37,9.67,10.74,19.34,16.11,29,.13,.23,.26,.45,.38,.68,.05,0,.11-.02,.16-.02Z"/><path class="cls-1" d="M241.45,18.08v12.58h.88c2.96,0,5.91,0,8.87,0,.18,0,.37,0,.55,0,1.83,.01,2.7,1.24,2.12,2.99-.2,.6-.6,.99-1.21,1.11-.41,.08-.83,.12-1.25,.12-3.01,0-6.02,0-9.03,0h-.84c-.16,.61-.2,15.64-.04,16.74h.89c4.34,0,8.69,0,13.03,0,.44,0,.89,.02,1.33,.09,.71,.12,1.17,.55,1.34,1.26,.03,.13,.06,.25,.08,.38,.13,1.26-.28,2.5-2.13,2.49-5.16-.03-10.31-.01-15.47-.01-.5,0-.99,.01-1.49,0-1.23-.04-1.86-.68-1.91-1.92,0-.18,0-.37,0-.55,0-12.32,0-24.64,0-36.96,0-.29,0-.58,.02-.86,.1-.98,.69-1.57,1.67-1.66,.26-.02,.52-.02,.78-.02,5.36,0,10.73,0,16.09,0,.13,0,.26,0,.39,0,.78,0,1.48,.19,1.82,.97,.36,.83,.37,1.71-.14,2.48-.2,.3-.59,.52-.94,.64-.39,.13-.82,.13-1.24,.13-4.4,0-8.79,0-13.19,0h-1.01Z"/><path class="cls-1" d="M121.88,30.47c.26-.37,.45-.62,.62-.87,3.35-4.87,6.7-9.74,10.04-14.61,.48-.69,1.04-1.14,1.93-1.14,1.74,0,2.69,1.54,1.87,3.1-.12,.23-.28,.44-.43,.66-3.83,5.55-7.67,11.11-11.51,16.65-.3,.43-.43,.85-.43,1.37,.02,5.91,.01,11.82,0,17.73,0,.34,0,.68-.05,1.02-.13,.79-.67,1.31-1.47,1.42-.28,.04-.58,.04-.86,.03-1.06-.05-1.63-.56-1.78-1.61-.05-.36-.06-.73-.06-1.09,0-5.81,0-11.61,0-17.42,0-.61-.16-1.09-.5-1.59-3.85-5.54-7.67-11.1-11.52-16.64-.49-.71-.71-1.43-.48-2.29,.2-.75,.69-1.16,1.43-1.28,1.04-.17,1.87,.11,2.5,1.04,3.34,4.91,6.72,9.79,10.08,14.68,.18,.26,.36,.51,.6,.85Z"/><path class="cls-1" d="M152.04,51.61h1.01c4.35,0,8.69,0,13.04,0,.44,0,.89,.02,1.33,.1,.68,.11,1.13,.52,1.31,1.19,.07,.28,.12,.57,.12,.85,0,1.35-.67,2.06-2.01,2.06-2.41,.02-4.82,0-7.22,0-3.11,0-6.23,0-9.34,0-.26,0-.52,0-.78-.02-.92-.09-1.49-.62-1.62-1.53-.05-.31-.04-.63-.04-.94,0-12.32,0-24.65,0-36.97,0-.44,.04-.89,.14-1.32,.12-.55,.5-.96,1.05-1.05,.58-.09,1.2-.11,1.77-.02,.61,.1,1.01,.55,1.14,1.17,.08,.41,.12,.83,.12,1.24,0,11.38,0,22.76,0,34.14v1.08Z"/><path class="cls-1" d="M184.91,34.92c0,6.12,0,12.24,0,18.35,0,.31,.01,.63-.03,.94-.11,.94-.7,1.51-1.64,1.6-.21,.02-.42,.02-.63,.01-1.14-.04-1.74-.56-1.9-1.68-.04-.28-.03-.57-.03-.86,0-12.29,0-24.58,0-36.86,0-.41,.04-.84,.12-1.24,.12-.61,.5-1.08,1.11-1.18,.58-.09,1.2-.1,1.77,0,.72,.13,1.07,.71,1.18,1.4,.05,.33,.04,.68,.04,1.02,0,6.17,0,12.34,0,18.51Z"/></svg>