<?xml version="1.0" encoding="UTF-8"?><svg id="Layer_1" xmlns="http://www.w3.org/2000/svg" viewBox="0 0 283.67 71.2"><defs><style>.cls-1{fill:#fff;}</style></defs><path class="cls-1" d="M93.38,40.64c0,4.2-3.06,6.58-9.3,6.58h-11.34V22.49h10.66c5.56,0,8.74,2.38,8.74,6.35,0,2.84-1.47,4.65-3.74,5.67,3.06,.68,4.99,2.84,4.99,6.13Zm-18.04-16v8.96h7.83c3.97,0,6.24-1.47,6.24-4.54s-2.27-4.54-6.24-4.54h-7.83v.11Zm15.43,15.77c0-3.18-2.38-4.65-6.69-4.65h-8.74v9.3h8.74c4.31,0,6.69-1.36,6.69-4.65Zm24.05,4.54v2.27h-17.47V22.49h16.9v2.27h-14.29v8.85h12.82v2.27h-12.82v9.19h14.86v-.11Zm11-20.19h-8.74v-2.27h19.97v2.27h-8.74v22.46h-2.61V24.76h.11Zm36.19,22.46l-.11-13.16-6.35,10.66h-3.06l-6.35-10.32v12.71h-6.47V22.49h5.79l8.74,14.29,8.51-14.29h5.79l.11,24.73h-6.58Zm27.91-12.82h6.13v10.21c-2.84,2.04-6.81,3.18-10.44,3.18-7.83,0-13.61-5.33-13.61-12.82s5.79-12.82,13.73-12.82c4.65,0,8.39,1.59,10.78,4.54l-4.42,3.97c-1.7-1.82-3.63-2.72-6.01-2.72-4.2,0-7.03,2.84-7.03,7.03s2.84,7.03,7.03,7.03c1.36,0,2.5-.23,3.74-.79v-6.81h.11Zm33.01,12.82l-.11-13.05-6.35,10.66h-3.06l-6.35-10.32v12.71h-6.47V22.49h5.79l8.74,14.29,8.51-14.29h5.79l.11,24.73h-6.58Z"/><g><path class="cls-1" d="M3.65,29.41c0,5.45,.91,10.55,3.63,14.75v-3.63c0-4.54,3.63-7.71,7.37-9.76-3.86,1.25-8.05,.34-11-1.36m3.18-3.86h-1.25c-.23-.68,1.7-1.93,2.27-1.02l-1.02,1.02Zm-3.86-.57c1.02,.68,2.5,1.02,3.97,.91,1.25,.91,2.95-1.59,4.76-1.59,2.61-.34,5.9-.68,7.71,1.59l-.91-1.7c-2.5-.23-4.54-1.02-6.47-2.16-3.86-1.7-5.79,3.86-9.08,2.95M.7,16.02c1.25,.34,2.5,.68,3.63,.68,2.61-1.02,3.29-3.18,2.27-5.9-1.59-2.27-3.63-3.52-5.9-3.97v9.19Zm17.47,49.8c.34-.34,.91-.91,1.25-1.36,7.03-9.08-6.69-14.41-6.35-23.14,.34-3.52,2.27-6.13,4.54-8.96l-.11-.23c-2.16,2.16-2.95,3.52-4.42,5.56-4.2,8.62,1.7,20.53-4.42,27.79l9.53,.34Zm28.36-30.86c0,12.59-5.9,23.6-15.2,30.86h30.86V4.23H31.33c9.19,6.92,15.2,18.15,15.2,30.74"/><path class="cls-1" d="M.7,65.83H5.92l1.25-1.25c7.15-9.76-1.36-16.68-6.69-24.39,0,0,.23,25.64,.23,25.64ZM15.22,4.23H.7v1.02c1.36,.23,2.95,.68,4.2,1.25,2.95,1.7,5.22,4.54,4.88,8.05l6.47-.68c.91-2.16,1.25-5.45,.34-7.15-.34-1.13-.91-2.04-1.36-2.5m2.95,0c1.36,1.93,1.36,4.31,1.59,6.24,2.61-1.93,5.79-3.18,9.08-2.27-2.27-1.7-3.86-3.18-6.69-4.2l-3.97,.23Zm12.93,31.31l-.57,1.36-.68-1.7c-1.59,.34-3.18,.91-3.97,2.61-.23,.57,.23,1.36-.34,1.7-1.02-.23-.57-1.93-.57-2.95,1.25-1.25,4.54-3.86,5.79-2.84,.34,.23,.57,1.13,.34,1.82m-7.03,12.59c-.91-.68-.57-1.93-.57-2.84l.57-.57c.91,2.84,3.18-.57,4.88-.23,.91-.34,.57-1.59,1.36-1.36,1.47,4.42-3.74,3.63-6.24,4.99m12.59,.57c.68-5.79,.23-11.91-3.97-15.88-.91-.23-2.16,.34-2.84-.57-1.93,1.7-4.42,2.5-6.13,4.42-1.93,.57-3.86-.68-5.79-1.02v-.68c-2.61,1.7-1.93,5.22-2.5,7.83,.68,2.95,3.97,4.2,6.13,5.9,3.29,.57,6.35-.91,9.08-1.93,.57,.57,1.25,.91,.91,1.59-2.27,3.18-5.56,4.54-9.42,4.2,2.27,4.42,.68,9.42-1.7,13.27h2.27c7.03-3.18,13.5-8.05,13.95-17.13"/><path class="cls-1" d="M41.77,24.99c-1.93-6.69-7.83-15.54-15.77-15.09-2.95,.23-5.9,2.5-7.03,4.2,2.16,1.25,4.42,2.95,6.35,4.76-.23,.68,.34,1.59-.57,1.93-1.02-.91-1.93-2.95-3.29-2.27,1.02,2.27,3.86,2.5,5.9,2.95,.91,.91,.57,2.27,2.27,1.59,.91,.23,1.25,1.25,1.36,1.93-1.36,2.61-5.22,.91-7.37,1.36,1.7,.68,3.63,.91,5.22,1.93,1.59,1.02,2.16-1.36,2.84-2.27,2.84,.68,1.25,3.63,2.5,5.22,5.9,6.13,4.76,17.02,1.7,23.94,8.39-7.03,7.71-23.48,5.9-30.18"/></g></svg>