<?xml version="1.0" encoding="UTF-8"?><svg id="Layer_1" xmlns="http://www.w3.org/2000/svg" viewBox="0 0 316.2 71.2"><defs><style>.cls-1,.cls-2{fill:#fff;}.cls-2{fill-rule:evenodd;}</style></defs><path class="cls-1" d="M67.41,14.6c2.25,.02,4.06,1.86,4.04,4.1-.02,2.25-1.86,4.06-4.1,4.04-2.22-.02-4.02-1.82-4.04-4.04-.01-2.25,1.81-4.09,4.06-4.1,.02,0,.03,0,.05,0Zm-3.31,13.62h6.61V61.29h-6.61V28.22Z"/><path class="cls-1" d="M79.51,30.23c2.91-1.65,7.87-2.84,13.3-2.84,8.4,0,14.55,5.03,14.55,16.77v17.14h-6.55v-17.65c0-7.54-3.31-10.06-8.46-10.06-2.12-.08-4.24,.28-6.22,1.06v26.65h-6.62V30.23Z"/><path class="cls-1" d="M114.31,26.31c0-9.07,5.02-12.17,11.7-12.17,3.77-.08,7.47,1.08,10.52,3.31l-2.44,5.69c-2.28-1.84-5.12-2.82-8.05-2.78-3.04,0-5.16,1.46-5.16,5.89v2.01h12.57v6.22h-12.6v26.83h-6.55V26.31Z"/><path class="cls-1" d="M139.25,15h6.61V50.36c0,3.97,1.65,5.29,4.16,5.29,1.44,0,2.84-.43,4.02-1.25l2.11,5.75c-2.16,1.21-4.6,1.8-7.08,1.72-5.62,0-9.85-2.98-9.85-11.51V15Z"/><path class="cls-1" d="M187.2,59.32c-2.91,1.65-7.87,2.84-13.3,2.84-8.4,0-14.55-5.03-14.55-16.73V28.22h6.55v17.67c0,7.54,3.31,10.06,8.4,10.06,2.15,.08,4.29-.28,6.28-1.06V28.22h6.62v31.09Z"/><path class="cls-1" d="M199.3,14.6c2.25,.01,4.06,1.85,4.04,4.1-.01,2.25-1.85,4.06-4.1,4.04-2.23-.01-4.03-1.82-4.04-4.04-.01-2.25,1.81-4.09,4.06-4.1,.01,0,.03,0,.04,0Zm-3.31,13.62h6.62V61.29h-6.62V28.22Z"/><path class="cls-1" d="M211.4,18.3h6.6v9.92h12.96v6.22h-12.96v15.35c0,3.9,1.66,5.43,4.17,5.75,1.08,.12,2.17,.08,3.24-.13,2.23-.23,4.34-1.11,6.08-2.52,.73,1.92,1.46,3.77,2.12,5.69-2.78,2.19-6.35,3.31-10.45,3.31-6.75,0-11.78-3.17-11.78-12.17V18.3Z"/><path class="cls-1" d="M242.15,14.6c2.25,.01,4.06,1.84,4.05,4.09-.01,2.25-1.84,4.06-4.09,4.05-2.23-.01-4.04-1.81-4.05-4.04-.01-2.25,1.81-4.09,4.06-4.1,.01,0,.02,0,.03,0Zm-3.29,13.62h6.65V61.29h-6.61l-.03-33.06Z"/><path class="cls-1" d="M266.83,53.29l9.86-25.07h6.87l-13.29,33.06h-6.87l-13.3-33.06h6.95l9.79,25.07Z"/><path class="cls-1" d="M314.78,47.28h-21.16v.26c0,5.29,3.5,8.14,8.72,8.14,3.6,.01,7.13-.95,10.23-2.78l2.01,5.69c-3.69,2.24-7.93,3.38-12.24,3.31-9.32,0-15.47-4.9-15.47-16.47v-1.4c0-11.77,5.62-16.67,13.95-16.67s13.96,4.88,13.96,16.67v3.25Zm-21.16-5.03h14.35v-.33c0-5.82-2.98-8.34-7.15-8.34s-7.2,2.52-7.2,8.34v.33Z"/><path class="cls-1" d="M23.21,9.04h0c-.18,.62-.31,1.26-.39,1.9,.08-.64,.21-1.28,.39-1.9Z"/><path class="cls-2" d="M48.19,43.21c-2.38,12.62-14.55,20.92-27.17,18.54-9.36-1.77-16.7-9.07-18.51-18.42-2.23-10.92,3.67-21.88,14.02-26.04h0c-.13,.44-.22,.89-.27,1.34-.23,1.82,.1,3.66,.94,5.29-8.24,4.51-11.27,14.84-6.76,23.09,4.51,8.24,14.84,11.27,23.09,6.76,4.16-2.28,7.18-6.18,8.33-10.78,1.79-7.56-1.66-15.38-8.46-19.15,.72-1.43,1.05-3.02,.97-4.62v-.16c-.05-.62-.16-1.22-.34-1.82h0c10.38,4.1,16.34,15.03,14.16,25.98Z"/><path class="cls-2" d="M20.59,30.72c-3.66,2.1-5.41,6.44-4.24,10.5,1.28,4.96,6.35,7.95,11.31,6.66,3.29-.85,5.85-3.43,6.68-6.72,1.15-4.07-.63-8.39-4.31-10.47-1.17-.72-2.01-1.88-2.33-3.23-.19-1.45,.34-2.9,1.41-3.89,1.56-1.56,2.06-3.89,1.27-5.95-1.09-2.83-4.27-4.23-7.1-3.13-1.45,.56-2.59,1.71-3.14,3.16-.76,2.07-.24,4.4,1.34,5.94,1.07,.99,1.6,2.43,1.44,3.88-.25,1.37-1.11,2.56-2.33,3.25"/></svg>