<?xml version="1.0" encoding="UTF-8"?><svg id="Layer_1" xmlns="http://www.w3.org/2000/svg" viewBox="0 0 390.51 71.2"><defs><style>.cls-1,.cls-2,.cls-3{fill:#fff;}.cls-2{opacity:.8;}.cls-3{opacity:.4;}</style></defs><path class="cls-1" d="M93.55,47.87h-14.01V19.13c0-.24-.24-.24-.24-.24h-6.04c-.24,0-.48,0-.48,.24V53.91c0,.24,.24,.24,.48,.24h20.29q.24,0,.24-.24v-5.56c0-.24,0-.48-.24-.48h0Z"/><path class="cls-1" d="M108.53,25.17h13.77s.24-.24,.24-.48v-5.56c0-.24-.24-.24-.24-.24h-20.05q-.24,0-.24,.24V53.91q0,.24,.24,.24h20.05s.24,0,.24-.24v-5.56c0-.24-.24-.48-.24-.48h-13.77v-8.7h12.32s.24,0,.24-.24v-5.31c0-.24-.24-.48-.24-.48h-12.32v-7.97h0Z"/><path class="cls-1" d="M198.62,53.91l-13.28-34.78c0-.24-.24-.24-.24-.24h-6.52q-.24,0-.24,.24l-13.28,34.78v.24h6.52s.24,0,.24-.24l3.14-8.45h13.28l3.38,8.45q0,.24,.24,.24h6.52c0-.24,.24-.24,.24-.24Zm-12.32-14.49h-8.94l4.35-12.08h0l4.59,12.08Z"/><path class="cls-1" d="M225.91,47.87h-14.01V19.13c0-.24-.24-.24-.48-.24h-5.8q-.24,0-.24,.24V53.91q0,.24,.24,.24h20.29q.24,0,.24-.24v-5.8c0-.24-.24-.24-.24-.24h0Z"/><path class="cls-1" d="M260.21,47.87h-16.42l16.42-28.5v-.48s0-.24-.24-.24h-25.36s-.24,.24-.24,.48v5.56c0,.24,.24,.48,.24,.48h14.49l-16.18,28.74q-.24,0,0,.24s0,.24,.24,.24h27.05s.24-.24,.24-.48v-5.56c0-.24-.24-.48-.24-.48Z"/><path class="cls-1" d="M281.47,18.16c-9.9,0-17.39,7.97-17.39,18.36s7.49,18.36,17.39,18.36,17.63-7.97,17.63-18.36-7.49-18.36-17.63-18.36Zm10.87,18.36c0,7.97-5.56,12.08-10.87,12.08s-10.63-4.11-10.63-12.08,5.31-12.08,10.63-12.08,10.87,4.11,10.87,12.08Z"/><path class="cls-1" d="M322.29,18.16c-9.9,0-17.39,7.97-17.39,18.36s7.49,18.36,17.39,18.36,17.63-7.97,17.63-18.36-7.49-18.36-17.63-18.36Zm-.24,6.28c5.31,0,10.87,4.11,10.87,12.08s-5.31,12.08-10.87,12.08-10.63-4.11-10.63-12.08,5.31-12.08,10.63-12.08Z"/><path class="cls-1" d="M380.01,19.13c0-.24-.24-.24-.48-.24h-6.76q-.24,0-.24,.24l-7.73,24.15h0l-7.97-24.15c0-.24-.24-.24-.48-.24h-6.76q-.24,0-.24,.24l-5.31,34.78,.24,.24h6.04s.24,0,.24-.24l3.38-23.91h0l7.73,24.15,.24,.24h5.07c.24,0,.24-.24,.48-.24l7.73-24.15,3.14,23.91c0,.24,.24,.24,.48,.24h6.04v-.24l-4.83-34.78Z"/><path class="cls-1" d="M158.04,35.79h-5.56c-.24,0-.48,.24-.48,.48v11.11q.24,0,0,0c-1.45,.97-3.38,1.21-5.07,1.21-6.28,0-10.87-5.07-10.87-12.08s4.83-11.84,11.35-11.84c3.14,0,6.28,.97,8.94,2.66l.48,.48h.48v-7l-.24-.24c-3.14-1.69-6.52-2.66-10.14-2.66-9.9,0-17.39,7.97-17.39,18.6s7.49,18.36,17.39,18.36c3.86,0,7.97-.97,11.35-3.14v-.24q.24,0,.24-.24v-14.98q0-.24-.24-.48h-.24Z"/><path class="cls-2" d="M45.97,9.95H26.89l-7,17.63h13.28c1.21,0,2.17,.48,3.14,1.45,.72,.72,1.21,1.93,1.21,2.9,0,.72-.24,1.21-.48,1.69l9.18-22.95h0c.24-.24,.24-.48,0-.48,0-.24-.24-.24-.24-.24Z"/><path class="cls-1" d="M51.53,45.45h-18.36c-.24,0-.24-.24-.48-.24v-.48l4.35-10.87v-.24c.24-.48,.48-.97,.48-1.69,0-2.42-1.93-4.35-4.35-4.35h-13.28L5.88,62.36c0,.24,0,.48,.24,.48,0,.24,.24,.24,.24,.24H44.76q.24,0,.48-.24l6.52-16.91c.24,0,.24-.24,0-.48h-.24Z"/><path class="cls-3" d="M7.57,9.95c-.24,0-.48,0-.48,.24L.32,27.1v.48H19.89l7-17.63H7.57Z"/></svg>