<?xml version="1.0" encoding="UTF-8"?><svg id="Layer_1" xmlns="http://www.w3.org/2000/svg" xmlns:xlink="http://www.w3.org/1999/xlink" viewBox="0 0 142.86 71.2"><defs><style>.cls-1{fill:none;}.cls-2{clip-path:url(#clippath);}.cls-3,.cls-4{fill:#102259;}.cls-4{fill-rule:evenodd;}</style><clipPath id="clippath"><rect class="cls-1" x="2.04" y="8.6" width="140.82" height="53.7"/></clipPath></defs><g class="cls-2"><g><path class="cls-3" d="M2.04,22.11H14.17v31.48H2.04V22.11ZM66.75,8.6h12.13V53.59h-12.13V8.6Zm-20.63,45.18c-6.7,0-12.13-5.26-12.13-11.76V22.11h12.13v31.66Zm3.4,0c3.22,0,6.3-1.24,8.58-3.44,2.27-2.2,3.55-5.2,3.55-8.31V22.11h-12.13v31.66Zm68.67-.07l-9.5-31.67h-12.15l9.5,31.66v8.9h12.15v-8.88Z"/><path class="cls-3" d="M23.61,34.44c3.67,0,6.65-2.89,6.65-6.45s-2.98-6.45-6.65-6.45-6.65,2.89-6.65,6.45,2.98,6.45,6.65,6.45Z"/><path class="cls-3" d="M120.86,34.25c3.62,0,6.56-2.85,6.56-6.36s-2.94-6.36-6.56-6.36-6.56,2.85-6.56,6.36,2.94,6.36,6.56,6.36Z"/><path class="cls-3" d="M82.4,21.96v31.83c4.57,0,12.96-2.56,12.96-15.84s-8.39-15.99-12.96-15.99Z"/><path class="cls-4" d="M135.58,51.75c.72,0,1.43,.14,2.1,.41,.66,.27,1.27,.66,1.78,1.16,.51,.5,.91,1.09,1.18,1.73,.27,.65,.41,1.34,.4,2.04-.04,2.9-2.49,5.23-5.49,5.21-3-.02-5.41-2.39-5.4-5.3,.01-2.9,2.44-5.25,5.44-5.26Zm-.03,1.04c-2.47,.01-4.46,1.96-4.46,4.36,0,2.4,2.01,4.33,4.48,4.33,.59,0,1.18-.12,1.72-.34,.55-.22,1.04-.55,1.46-.95,.42-.41,.75-.89,.97-1.42,.22-.53,.34-1.1,.33-1.67-.02-2.4-2.04-4.32-4.51-4.31Z"/><path class="cls-4" d="M135.82,54.54c1.24,0,1.83,.78,1.83,1.67,0,.98-.41,1.5-1.24,1.68l1.41,1.93h-1.21l-1.39-1.85h-.48v1.85h-1.08v-5.28h2.15Zm-.02,.8h-1.09v1.95h1.07c.33,.02,.65-.15,.83-.46,.09-.15,.13-.33,.13-.5,0-.18-.04-.35-.13-.51-.17-.31-.49-.5-.82-.48h0Z"/></g></g></svg>